# Blender v2.79 (sub 0) OBJ File: ''
# www.blender.org
mtllib monkey_decimated_1.mtl
o Suzanne
v 2.133634 0.770833 1.884129
v 1.258634 0.770833 1.884129
v 1.852384 0.661458 1.766941
v 1.539884 0.661458 1.766941
v 1.969572 0.934896 1.915379
v 1.422697 0.934896 1.915379
v 2.243009 1.044271 1.696629
v 1.149259 1.044271 1.696629
v 2.047697 0.848958 1.946629
v 1.344572 0.848958 1.946629
v 1.696134 1.036458 1.860691
v 1.696134 0.958333 1.938816
v 1.696134 0.286458 1.899754
v 1.696134 1.177083 1.688816
v 1.696134 1.505208 0.571629
v 1.696134 0.223958 0.766941
v 1.899259 0.419271 1.681004
v 1.493009 0.419271 1.681004
v 2.047697 -0.088542 1.688816
v 1.344572 -0.088542 1.688816
v 2.024259 -0.338542 1.641941
v 2.328947 0.567708 1.657566
v 1.063322 0.567708 1.657566
v 2.188322 1.208333 1.806004
v 1.203947 1.208333 1.806004
v 1.821134 0.911458 1.884129
v 1.571134 0.911458 1.884129
v 2.071134 0.622396 1.821629
v 1.321134 0.622396 1.821629
v 2.321134 0.794271 1.766941
v 1.071134 0.794271 1.766941
v 2.336759 0.903646 1.766941
v 1.055509 0.903646 1.766941
v 1.696134 -0.158854 1.852879
v 1.805509 -0.111979 1.852879
v 1.586759 -0.111979 1.852879
v 1.813322 -0.229167 1.829441
v 1.578947 -0.229167 1.829441
v 1.696134 -0.283854 1.806004
v 1.696134 0.411458 1.868504
v 1.696134 0.466146 1.860691
v 1.797697 0.458333 1.860691
v 1.594572 0.458333 1.860691
v 1.782072 0.317708 1.860691
v 1.610197 0.317708 1.860691
v 2.094572 0.559896 1.790379
v 1.297697 0.559896 1.790379
v 2.313322 0.661458 1.743504
v 1.078947 0.661458 1.743504
v 2.422697 0.809896 1.720066
v 0.969572 0.809896 1.720066
v 2.383634 1.020833 1.845066
v 1.008634 1.020833 1.845066
v 2.008634 1.247396 1.954441
v 1.383634 1.247396 1.954441
v 1.797697 1.036458 1.962254
v 1.594572 1.036458 1.962254
v 1.821134 0.505208 1.931004
v 1.571134 0.505208 1.931004
v 1.961759 -0.213542 1.782566
v 1.430509 -0.213542 1.782566
v 1.860197 -0.322917 1.751316
v 1.532072 -0.322917 1.751316
v 1.696134 0.653646 1.845066
v 1.696134 0.817708 1.884129
v 1.860197 0.747396 1.868504
v 1.532072 0.747396 1.868504
v 1.813322 -0.080729 1.852879
v 1.578947 -0.080729 1.852879
v 1.696134 0.161458 1.868504
v 1.828947 0.380208 1.915379
v 1.563322 0.380208 1.915379
v 1.735197 0.481771 1.899754
v 1.657072 0.481771 1.899754
v 1.696134 0.403646 1.946629
v 1.953947 0.294271 1.673191
v 1.438322 0.294271 1.673191
v 1.860197 0.364583 1.829441
v 1.532072 0.364583 1.829441
v 1.743009 -0.260417 1.806004
v 1.649259 -0.260417 1.806004
v 1.789884 -0.135417 1.845066
v 1.602384 -0.135417 1.845066
v 1.696134 -0.174479 1.774754
v 1.789884 -0.205729 1.759129
v 1.602384 -0.205729 1.759129
v 1.868009 0.825521 1.899754
v 1.524259 0.825521 1.899754
v 2.032072 1.036458 1.876316
v 1.360197 1.036458 1.876316
v 2.258634 0.958333 1.813816
v 1.133634 0.958333 1.813816
v 2.274259 0.802083 1.798191
v 1.118009 0.802083 1.798191
v 2.172697 0.708333 1.837254
v 1.219572 0.708333 1.837254
v 1.922697 0.716146 1.899754
v 1.469572 0.716146 1.899754
v 1.907072 0.981771 1.899754
v 1.485197 0.981771 1.899754
v 1.891447 0.903646 1.876316
v 1.500822 0.903646 1.876316
v 2.071134 0.692708 1.845066
v 1.321134 0.692708 1.845066
v 2.243009 0.817708 1.790379
v 1.149259 0.817708 1.790379
v 2.250822 0.888021 1.790379
v 1.141447 0.888021 1.790379
v 2.110197 0.997396 1.868504
v 1.282072 0.997396 1.868504
v 1.977384 1.005208 1.884129
v 1.414884 1.005208 1.884129
v 1.899259 0.778646 1.868504
v 1.493009 0.778646 1.868504
v 1.805509 1.067708 1.727879
v 1.586759 1.067708 1.727879
v 2.032072 1.294271 1.712254
v 1.360197 1.294271 1.712254
v 2.180509 1.161458 1.673191
v 1.211759 1.161458 1.673191
v 2.375822 1.059896 1.610691
v 1.016447 1.059896 1.610691
v 2.469572 0.770833 1.493504
v 0.922697 0.770833 1.493504
v 2.133634 0.513021 1.587254
v 1.258634 0.513021 1.587254
v 1.696134 1.505208 1.407566
v 2.555509 0.927083 1.071629
v 0.836759 0.927083 1.071629
v 2.469572 0.872396 0.681004
v 0.922697 0.872396 0.681004
v 2.430509 0.559896 1.188816
v 0.961759 0.559896 1.188816
v 2.289884 0.481771 0.954441
v 1.102384 0.481771 0.954441
v 2.336759 0.598958 0.688816
v 1.055509 0.598958 0.688816
v 1.930509 0.255208 1.524754
v 1.461759 0.255208 1.524754
v 1.821134 0.067708 1.477879
v 1.571134 0.067708 1.477879
v 1.532072 -0.338542 1.556004
v 1.914884 0.325521 1.548191
v 1.477384 0.325521 1.548191
v 1.907072 0.380208 1.587254
v 1.485197 0.380208 1.587254
v 1.907072 0.216146 1.282566
v 1.485197 0.216146 1.282566
v 2.157072 1.130208 1.548191
v 1.235197 1.130208 1.548191
v 2.336759 1.309896 1.173191
v 1.055509 1.309896 1.173191
v 2.493009 1.223958 1.001316
v 0.899259 1.223958 1.001316
v 2.336759 1.286458 0.673191
v 1.055509 1.286458 0.673191
v 2.180509 0.630208 0.571629
v 1.211759 0.630208 0.571629
v 2.516447 0.934896 0.915379
v 0.875822 0.934896 0.915379
v 2.102384 0.434896 1.266941
v 1.289884 0.434896 1.266941
v 2.125822 0.411458 0.907566
v 1.266447 0.411458 0.907566
v 2.469572 0.466146 0.993504
v 0.922697 0.466146 0.993504
v 2.977384 0.661458 0.688816
v 0.414884 0.661458 0.688816
v 2.930509 1.114583 0.696629
v 0.461759 1.114583 0.696629
v 2.719572 1.083333 0.806004
v 0.672697 1.083333 0.806004
v 2.883634 1.044271 0.727879
v 0.508634 1.044271 0.727879
v 2.961759 0.895833 0.712254
v 0.430509 0.895833 0.712254
v 2.618009 0.966146 0.899754
v 0.774259 0.966146 0.899754
v 2.578947 0.583333 0.907566
v 0.813322 0.583333 0.907566
v 2.883634 0.700521 0.673191
v 0.508634 0.700521 0.673191
v 2.868009 0.966146 0.681004
v 0.524259 0.966146 0.681004
v 2.453947 0.700521 0.845066
v 0.938322 0.700521 0.845066
v 2.539884 0.622396 0.845066
v 0.852384 0.622396 0.845066
v 2.422697 0.606771 1.048191
v 0.969572 0.606771 1.048191
v 2.414884 0.583333 0.946629
v 0.977384 0.583333 0.946629
v 2.414884 0.645833 0.931004
v 0.977384 0.645833 0.931004
v 2.493009 0.809896 0.907566
v 0.899259 0.809896 0.907566
v 2.649259 0.895833 0.774754
v 0.743009 0.895833 0.774754
v 2.633634 0.669271 0.782566
v 0.758634 0.669271 0.782566
v 2.946134 1.075521 0.571629
v 0.446134 1.075521 0.571629
v 2.555509 0.989583 0.735691
v 0.836759 0.989583 0.735691
vn 0.3110 -0.4685 0.8269
vn -0.1821 0.0052 -0.9833
vn 0.1821 0.0052 -0.9833
vn 0.4752 -0.7707 -0.4245
vn 0.3595 -0.0899 0.9288
vn -0.1072 -0.5215 0.8465
vn -0.3070 -0.5140 0.8010
vn 0.3015 -0.3015 0.9045
vn -0.3747 -0.8345 0.4040
vn -0.6947 -0.4197 0.5841
vn -0.8789 -0.4052 0.2517
vn 0.3709 0.9044 0.2109
vn 0.5424 0.4019 0.7377
vn -0.5654 0.2096 0.7977
vn -0.0000 0.0000 1.0000
vn 0.0000 -0.9968 0.0797
vn -0.1908 0.1056 -0.9759
vn -0.1512 -0.3671 0.9178
vn 0.9517 0.2245 -0.2094
vn -0.5168 -0.2189 0.8276
vn -0.4350 -0.1812 0.8820
vn 0.4815 -0.2408 0.8427
vn 0.1427 -0.5580 -0.8175
vn 0.5654 0.2096 0.7977
vn -0.9517 0.2245 -0.2094
vn 0.1783 -0.4161 0.8917
vn 0.5774 0.5774 0.5774
vn -0.4788 -0.7534 0.4506
vn 0.0000 -0.2425 0.9701
vn -0.7230 0.0977 0.6839
vn 0.3747 -0.8345 0.4040
vn -0.3128 -0.1662 0.9352
vn 0.6788 0.7277 0.0986
vn 0.1074 -0.0269 0.9938
vn 0.6947 -0.4197 0.5841
vn -0.4815 -0.2408 0.8427
vn -0.4260 -0.0609 0.9027
vn 0.4350 -0.1812 0.8820
vn -0.2408 -0.4815 0.8427
vn -0.6984 -0.5349 0.4755
vn -0.3059 0.9519 -0.0167
vn 0.6984 -0.5349 0.4755
vn -0.1687 0.7762 0.6075
vn 0.3624 0.3986 0.8425
vn 0.8640 -0.5034 -0.0024
vn 0.6552 0.1123 0.7471
vn -0.6552 0.1123 0.7471
vn 0.3274 -0.9049 0.2718
vn -0.3274 -0.9049 0.2718
vn -0.4453 -0.8738 -0.1954
vn 0.6278 -0.7640 0.1488
vn 0.9724 0.2184 0.0824
vn -0.9724 0.2184 0.0824
vn -0.6278 -0.7640 0.1488
vn -0.9103 0.3529 0.2165
vn 0.1072 -0.5215 0.8465
vn -0.3015 -0.3015 0.9045
vn 0.1269 0.9838 0.1269
vn 0.5914 0.7489 -0.2991
vn -0.7035 0.7072 0.0698
vn 0.4036 0.6861 0.6054
vn -0.5914 0.7489 -0.2991
vn 0.5511 0.6760 0.4892
vn 0.5747 -0.5600 0.5968
vn 0.7035 0.7072 0.0698
vn 0.1854 -0.4956 0.8485
vn 0.3274 -0.3090 0.8929
vn -0.3274 -0.3090 0.8929
vn 0.5714 0.6116 0.5472
vn -0.5511 0.6760 0.4892
vn 0.0642 -0.3911 0.9181
vn -0.0642 -0.3911 0.9181
vn 0.0000 -0.9999 -0.0151
vn 0.4302 -0.3627 0.8267
vn -0.4302 -0.3627 0.8267
vn -0.5168 -0.2145 0.8288
vn -0.0847 -0.5759 0.8131
vn 0.2344 0.0311 0.9717
vn -0.2344 0.0311 0.9717
vn -0.2216 -0.3084 0.9251
vn 0.5168 -0.2145 0.8288
vn 0.0847 -0.5759 0.8131
vn -0.0848 -0.1145 0.9898
vn 0.0848 -0.1145 0.9898
vn -0.1074 -0.0269 0.9938
vn -0.9023 0.3823 0.1993
vn 0.0921 -0.5523 0.8285
vn -0.0921 -0.5523 0.8285
vn 0.1507 -0.7651 0.6260
vn -0.5774 -0.5773 0.5773
vn 0.3128 -0.1662 0.9352
vn 0.0000 -0.0487 0.9988
vn 0.1131 0.8728 0.4748
vn 0.7230 0.0977 0.6839
vn 0.9286 -0.1032 0.3564
vn -0.9286 -0.1032 0.3564
vn 0.2755 0.3895 0.8788
vn 0.4260 -0.0609 0.9027
vn 0.1512 -0.3671 0.9178
vn 0.0000 0.9950 0.0995
vn -0.1783 -0.4161 0.8917
vn 0.9586 0.0664 0.2767
vn 0.9023 0.3823 0.1993
vn 0.4453 -0.8738 -0.1954
vn -0.2940 0.4642 0.8355
vn -0.2755 0.3895 0.8788
vn -0.0693 0.9004 -0.4294
vn -0.4452 -0.1610 0.8809
vn 0.4452 -0.1610 0.8809
vn 0.4788 -0.7534 0.4506
vn 0.5774 -0.5773 0.5773
vn 0.0693 0.9004 -0.4294
vn 0.0112 0.3878 0.9217
vn 0.0000 -0.9806 0.1961
vn -0.1681 0.1005 -0.9806
vn -0.9008 0.2209 0.3739
vn 0.9008 0.2209 0.3739
vn 0.1191 0.0397 0.9921
vn -0.1101 -0.0109 0.9939
vn -0.5714 0.6116 0.5472
vn 0.1751 -0.2043 0.9631
vn 0.0000 0.3417 0.9398
vn -0.3595 -0.0899 0.9288
vn -0.1798 -0.0949 0.9791
vn -0.1507 -0.7651 0.6260
vn 0.0066 -0.2316 0.9728
vn 0.7460 -0.6596 0.0917
vn -0.2623 -0.3498 0.8994
vn -0.1854 -0.4956 0.8485
vn 0.2216 -0.3084 0.9251
vn 0.2922 0.2829 0.9136
vn 0.3371 -0.3169 0.8865
vn -0.0247 0.4072 0.9130
vn -0.3371 -0.3169 0.8865
vn 0.2304 0.0256 0.9728
vn 0.2741 -0.0685 0.9593
vn -0.2741 -0.0685 0.9593
vn 0.2940 0.4642 0.8355
vn -0.5440 -0.0777 0.8355
vn -0.0066 -0.2316 0.9728
vn 0.2623 -0.3498 0.8994
vn -0.2922 0.2829 0.9136
vn -0.2483 -0.3310 0.9104
vn 0.5440 -0.0777 0.8355
vn -0.2304 0.0256 0.9728
vn -0.0112 0.3878 0.9217
vn -0.3662 0.5224 0.7701
vn 0.0247 0.4072 0.9130
vn 0.2483 -0.3310 0.9104
vn -0.7071 0.0000 0.7071
vn -0.1191 0.0397 0.9921
vn -0.3081 -0.3294 0.8925
vn 0.3081 -0.3294 0.8925
vn 0.3662 0.5224 0.7701
vn 0.0000 0.7740 0.6332
vn -0.3536 -0.3295 -0.8754
vn 0.7071 0.0000 0.7071
vn 0.1101 -0.0109 0.9939
vn -0.5774 0.5773 0.5774
vn -0.9142 -0.3664 -0.1729
vn 0.2408 -0.4815 0.8427
vn -0.3709 0.9044 0.2109
vn -0.3502 0.8766 -0.3300
vn -0.1269 0.9838 0.1269
vn -0.4036 0.6861 0.6054
vn 0.3502 0.8766 -0.3300
vn -0.4177 -0.5751 0.7034
vn -0.6788 0.7277 0.0986
vn -0.8640 -0.5034 -0.0024
vn 0.1404 0.8650 0.4817
vn 0.9103 0.3529 0.2165
vn 0.2958 0.0769 -0.9521
vn 0.8789 -0.4052 0.2517
vn 0.2074 0.4452 0.8711
vn 0.4177 -0.5751 0.7034
vn -0.2958 0.0769 -0.9521
vn 0.0000 -0.8137 0.5812
vn -0.7638 -0.2587 -0.5913
vn 0.3714 -0.5571 0.7428
vn 0.9318 0.2894 -0.2188
vn -0.6102 -0.1621 -0.7755
vn -0.9586 0.0664 0.2767
vn -0.9337 0.2813 -0.2215
vn -0.5747 -0.5600 0.5968
vn -0.9318 0.2894 -0.2188
vn -0.1751 -0.2043 0.9631
vn 0.6102 -0.1621 -0.7755
vn -0.2082 -0.1111 0.9718
vn 0.7041 0.0665 -0.7070
vn 0.0000 -0.7962 -0.6051
vn 0.9142 -0.3664 -0.1729
vn 0.3536 -0.3295 -0.8754
vn 0.0490 0.8329 0.5512
vn 0.4457 0.8942 -0.0419
vn 0.9512 -0.2971 0.0837
vn 0.0000 -0.1507 -0.9886
vn 0.3059 0.9519 -0.0167
vn 0.8315 -0.1767 0.5266
vn -0.4457 0.8942 -0.0419
vn 0.9337 0.2813 -0.2215
vn 0.3877 -0.9035 0.1826
vn 0.7758 0.2954 0.5576
vn -0.9617 0.1468 -0.2315
vn 0.5137 -0.6257 0.5871
vn 0.9617 0.1468 -0.2315
vn -0.7238 -0.6878 0.0550
vn 0.0000 -0.1888 -0.9820
vn 0.0079 -0.9154 -0.4025
vn -0.9613 0.1472 -0.2330
vn -0.7758 0.2954 0.5576
vn 0.3669 0.8840 -0.2898
vn 0.4153 0.1237 0.9012
vn -0.3669 0.8840 -0.2898
vn 0.9613 0.1472 -0.2330
vn -0.2854 0.6237 0.7277
vn 0.1681 0.1005 -0.9806
vn 0.0425 0.9150 0.4013
vn -0.0425 0.9150 0.4013
vn 0.2854 0.6237 0.7277
vn -0.1404 0.8650 0.4817
vn -0.3877 -0.9035 0.1826
vn 0.9570 0.2574 -0.1341
vn -0.9512 -0.2971 0.0837
vn -0.8868 0.2775 -0.3695
vn 0.5383 -0.2841 -0.7934
vn -0.7460 -0.6596 0.0917
vn 0.8868 0.2775 -0.3695
vn 0.3722 -0.9243 0.0847
vn -0.3722 -0.9243 0.0847
vn -0.4209 0.7228 0.5480
vn 0.6066 -0.7578 0.2405
vn -0.6066 -0.7578 0.2405
vn 0.7325 -0.6368 0.2407
vn -0.7325 -0.6368 0.2407
vn -0.4693 -0.8006 0.3727
vn 0.4209 0.7228 0.5480
vn -0.5383 -0.2841 -0.7934
vn -0.8073 0.5901 0.0041
vn 0.4693 -0.8006 0.3727
vn 0.3190 -0.8494 -0.4205
vn -0.3190 -0.8494 -0.4205
vn -0.9570 0.2574 -0.1341
vn -0.4559 0.8402 0.2937
vn 0.4559 0.8402 0.2937
vn 0.7784 -0.3756 -0.5030
vn -0.3420 0.8682 -0.3596
vn 0.4467 0.0975 0.8894
vn 0.3450 0.4870 0.8024
vn -0.3450 0.4870 0.8024
vn 0.3420 0.8682 -0.3596
vn -0.9091 0.1010 -0.4041
vn 0.1788 0.2923 0.9395
vn 0.5257 -0.3579 0.7717
vn -0.1788 0.2923 0.9395
vn -0.1131 0.8728 0.4748
vn 0.5168 -0.2189 0.8276
vn -0.5137 -0.6257 0.5871
vn 0.3481 -0.0480 0.9362
vn 0.7220 -0.6827 -0.1126
vn -0.7220 -0.6827 -0.1126
vn -0.9906 0.1009 0.0923
vn -0.5313 0.5844 0.6134
vn 0.5802 0.1975 0.7901
vn -0.3481 -0.0480 0.9362
vn -0.9551 -0.1636 -0.2470
vn -0.4004 0.0040 0.9163
vn 0.9008 -0.4075 0.1501
vn 0.9105 -0.3965 -0.1175
vn -0.9105 -0.3965 -0.1175
vn 0.9972 -0.0181 -0.0725
vn -0.9972 -0.0181 -0.0725
vn -0.0490 0.8329 0.5512
vn -0.9008 -0.4075 0.1501
vn -0.2984 0.8997 -0.3185
vn -0.3624 0.3986 0.8425
vn -0.4657 0.2705 0.8426
vn -0.5802 0.1975 0.7901
vn 0.3949 -0.0038 0.9187
vn 0.9551 -0.1636 -0.2470
vn 0.5313 0.5844 0.6134
vn 0.4004 0.0040 0.9163
vn -0.5257 -0.3579 0.7717
vn 0.9906 0.1009 0.0923
vn 0.9091 0.1010 -0.4041
vn 0.1687 0.7762 0.6075
vn 0.2984 0.8997 -0.3185
vn 0.1798 -0.0949 0.9791
vn -0.2074 0.4452 0.8711
vn 0.2082 -0.1111 0.9718
vn 0.8165 -0.4082 -0.4082
vn -0.3949 -0.0038 0.9187
vn 0.4657 0.2705 0.8426
vn -0.4153 0.1237 0.9012
vn -0.4467 0.0975 0.8894
vn -0.7784 -0.3756 -0.5030
vn -0.3110 -0.4685 0.8269
vn -0.0079 -0.9154 -0.4025
vn 0.8073 0.5901 0.0041
vn -0.8165 -0.4082 -0.4082
vn -0.4752 -0.7707 -0.4245
vn -0.5424 0.4019 0.7377
vn 0.1908 0.1056 -0.9759
usemtl None
s off
f 4//1 6//1 10//1 2//1
f 7//2 1//2 3//2 5//2
f 4//3 2//3 8//3 6//3
f 157//4 163//4 16//4
f 35//5 60//5 68//5
f 32//6 50//6 52//6
f 38//7 61//7 63//7
f 111//8 89//8 99//8
f 59//9 47//9 18//9
f 49//10 51//10 23//10
f 23//11 51//11 124//11
f 54//12 24//12 117//12
f 7//13 5//13 9//13 1//13
f 20//14 61//14 69//14
f 69//15 36//15 34//15
f 63//16 142//16 62//16
f 156//17 15//17 158//17
f 75//18 72//18 13//18
f 138//19 76//19 19//19
f 198//20 200//20 186//20 196//20
f 51//21 49//21 31//21
f 58//22 46//22 28//22
f 142//23 140//23 21//23 62//23
f 68//24 60//24 19//24
f 139//25 20//25 77//25
f 35//26 34//26 82//26
f 34//15 35//15 68//15
f 12//27 11//27 57//27
f 72//28 45//28 13//28
f 70//29 44//29 13//29 45//29
f 41//30 40//30 73//30
f 58//31 17//31 46//31
f 38//32 36//32 61//32
f 24//33 52//33 121//33
f 101//34 99//34 26//34 87//34
f 48//35 22//35 50//35
f 47//36 59//36 29//36
f 51//37 31//37 33//37
f 48//38 50//38 30//38
f 27//39 57//39 100//39
f 196//40 178//40 198//40
f 156//41 152//41 127//41 15//41
f 197//42 177//42 195//42
f 182//43 180//43 200//43
f 185//44 187//44 199//44
f 138//45 140//45 147//45
f 44//46 68//46 19//46 76//46
f 45//47 77//47 20//47 69//47
f 46//48 17//48 125//48 22//48
f 18//49 47//49 23//49 126//49
f 16//50 148//50 164//50
f 132//51 123//51 22//51 125//51
f 121//52 52//52 50//52 123//52
f 124//53 51//53 53//53 122//53
f 23//54 124//54 133//54 126//54
f 124//55 122//55 152//55 129//55
f 51//56 33//56 53//56
f 90//57 112//57 100//57
f 57//58 11//58 116//58
f 24//59 119//59 117//59
f 115//60 56//60 54//60 117//60
f 109//61 91//61 89//61
f 120//62 25//62 118//62
f 52//63 24//63 54//63
f 78//64 44//64 76//64
f 116//65 118//65 55//65 57//65
f 56//66 12//66 26//66
f 89//67 54//67 56//67 99//67
f 90//68 100//68 57//68 55//68
f 71//69 42//69 73//69
f 25//70 53//70 55//70
f 54//71 89//71 91//71 52//71
f 90//72 55//72 53//72 92//72
f 148//73 16//73 147//73
f 48//74 30//74 95//74 28//74
f 31//75 49//75 29//75 96//75
f 94//76 31//76 96//76
f 53//77 33//77 92//77
f 58//78 28//78 97//78 66//78
f 29//79 59//79 67//79 98//79
f 29//80 98//80 104//80 96//80
f 30//81 93//81 95//81
f 32//82 52//82 91//82
f 66//83 87//83 26//83 65//83
f 88//84 67//84 65//84 27//84
f 100//85 102//85 88//85 27//85
f 77//86 79//86 18//86 146//86
f 80//87 39//87 62//87 37//87
f 63//88 39//88 81//88 38//88
f 83//89 86//89 84//89
f 58//90 42//90 78//90
f 35//91 37//91 60//91
f 69//92 34//92 68//92 70//92
f 191//93 179//93 187//93
f 41//94 74//94 40//94
f 71//95 44//95 78//95 42//95
f 45//96 72//96 43//96 79//96
f 75//97 71//97 73//97
f 30//98 50//98 32//98
f 71//99 75//99 13//99
f 73//100 40//100 74//100 75//100
f 34//101 36//101 83//101
f 17//102 58//102 78//102
f 78//103 76//103 145//103 17//103
f 147//104 16//104 163//104
f 86//105 81//105 84//105
f 72//106 75//106 74//106
f 74//107 41//107 43//107
f 41//108 42//108 58//108 64//108
f 59//109 43//109 41//109 64//109
f 44//110 71//110 13//110
f 59//111 79//111 43//111
f 41//112 73//112 42//112
f 105//113 103//113 95//113
f 82//114 34//114 83//114 84//114
f 119//115 115//115 117//115
f 85//116 80//116 37//116 82//116
f 81//117 86//117 83//117 38//117
f 111//118 109//118 89//118
f 69//119 70//119 45//119
f 43//120 72//120 74//120
f 83//121 36//121 38//121
f 81//122 80//122 84//122
f 81//15 39//15 80//15
f 61//123 36//123 69//123
f 160//124 178//124 196//124
f 85//125 82//125 84//125
f 67//126 64//126 65//126
f 161//127 147//127 163//127
f 65//128 12//128 27//128
f 12//129 57//129 27//129
f 103//130 97//130 28//130 95//130
f 64//131 67//131 59//131
f 28//132 46//132 48//132
f 95//133 93//133 105//133
f 49//134 47//134 29//134
f 106//135 108//135 94//135
f 107//136 93//136 32//136 91//136
f 33//137 94//137 108//137 92//137
f 67//15 88//15 114//15 98//15
f 85//138 84//138 80//138
f 33//139 31//139 94//139
f 64//140 66//140 65//140
f 26//141 12//141 65//141
f 113//15 87//15 66//15 97//15
f 66//142 64//142 58//142
f 92//143 108//143 110//143
f 30//144 32//144 93//144
f 105//145 93//145 107//145
f 96//146 104//146 106//146
f 98//147 114//147 104//147
f 106//148 94//148 96//148
f 109//149 107//149 91//149
f 102//150 114//150 88//150
f 90//151 110//151 112//151
f 112//152 102//152 100//152
f 99//153 101//153 111//153
f 103//154 113//154 97//154
f 14//155 116//155 11//155 115//155
f 201//156 167//156 165//156 203//156
f 87//157 113//157 101//157
f 70//158 68//158 44//158
f 11//159 12//159 56//159
f 190//160 133//160 129//160
f 26//161 99//161 56//161
f 25//162 55//162 118//162
f 120//163 122//163 25//163
f 11//164 56//164 115//164
f 92//165 110//165 90//165
f 119//166 24//166 121//166
f 49//167 23//167 47//167
f 53//168 25//168 122//168
f 141//169 139//169 148//169
f 151//170 149//170 121//170
f 121//171 123//171 128//171 151//171
f 155//172 130//172 157//172
f 50//173 22//173 123//173
f 191//174 165//174 179//174
f 22//175 48//175 46//175
f 131//176 156//176 158//176
f 39//177 63//177 62//177
f 142//178 61//178 20//178 141//178
f 62//179 21//179 60//179 37//179
f 76//180 143//180 145//180
f 139//181 141//181 20//181
f 79//182 59//182 18//182
f 144//183 139//183 77//183
f 45//184 79//184 77//184
f 146//185 144//185 77//185
f 37//186 35//186 82//186
f 140//187 138//187 19//187
f 167//188 175//188 181//188
f 19//189 21//189 140//189
f 141//190 148//190 147//190 140//190
f 132//191 189//191 128//191
f 202//192 204//192 166//192 168//192
f 188//193 200//193 180//193
f 151//194 153//194 155//194
f 132//195 128//195 123//195
f 158//196 15//196 157//196 16//196
f 155//197 15//197 127//197 151//197
f 60//198 21//198 19//198
f 156//199 154//199 152//199
f 138//200 143//200 76//200
f 125//201 161//201 132//201
f 153//202 151//202 128//202
f 160//203 154//203 131//203
f 197//204 183//204 173//204 177//204
f 159//205 130//205 153//205
f 142//206 63//206 61//206
f 141//207 140//207 142//207
f 134//208 136//208 165//208
f 154//209 160//209 129//209
f 154//210 129//210 152//210
f 119//211 121//211 149//211
f 169//212 173//212 175//212
f 122//213 120//213 150//213
f 128//214 159//214 153//214
f 150//215 14//215 127//215
f 120//216 118//216 116//216
f 115//217 119//217 149//217 14//217
f 150//218 120//218 116//218 14//218
f 14//219 149//219 127//219
f 150//220 152//220 122//220
f 162//221 126//221 133//221
f 143//222 138//222 147//222
f 129//223 133//223 124//223
f 156//224 131//224 154//224
f 130//225 136//225 157//225
f 162//226 164//226 148//226
f 130//227 155//227 153//227
f 132//228 161//228 163//228 134//228
f 164//229 162//229 133//229 135//229
f 150//230 127//230 152//230
f 125//231 145//231 143//231 161//231
f 144//232 146//232 126//232 162//232
f 143//233 147//233 161//233
f 162//234 148//234 144//234
f 18//235 126//235 146//235
f 127//236 149//236 151//236
f 158//237 137//237 131//237
f 130//238 159//238 203//238
f 145//239 125//239 17//239
f 134//240 163//240 157//240 136//240
f 158//241 164//241 135//241 137//241
f 144//242 148//242 139//242
f 177//243 171//243 203//243 159//243
f 204//244 172//244 178//244 160//244
f 165//245 136//245 203//245
f 203//246 171//246 201//246
f 169//247 171//247 173//247
f 165//248 167//248 181//248 179//248
f 182//249 168//249 166//249 180//249
f 172//250 204//250 202//250
f 168//251 176//251 170//251
f 166//252 135//252 192//252
f 184//253 174//253 176//253
f 134//254 165//254 191//254
f 180//255 192//255 188//255
f 195//256 185//256 199//256 197//256
f 174//257 184//257 198//257 178//257
f 176//258 182//258 184//258
f 132//259 134//259 191//259 189//259
f 192//260 135//260 133//260 190//260
f 202//261 168//261 170//261
f 188//262 194//262 186//262
f 187//263 193//263 191//263
f 181//264 175//264 183//264
f 196//265 129//265 160//265
f 200//266 198//266 182//266
f 195//267 193//267 185//267
f 128//268 189//268 193//268 195//268
f 194//269 190//269 129//269 196//269
f 189//270 191//270 193//270
f 194//271 192//271 190//271
f 199//272 187//272 179//272
f 194//273 196//273 186//273
f 171//274 169//274 201//274
f 200//275 188//275 186//275
f 172//276 174//276 178//276
f 192//277 194//277 188//277
f 197//278 181//278 183//278
f 128//279 195//279 159//279
f 185//280 193//280 187//280
f 199//281 181//281 197//281
f 173//282 183//282 175//282
f 169//283 167//283 201//283
f 175//284 167//284 169//284
f 179//285 181//285 199//285
f 202//286 170//286 172//286
f 177//287 159//287 195//287
f 166//288 192//288 180//288
f 176//289 168//289 182//289
f 130//290 203//290 136//290
f 198//291 184//291 182//291
f 173//292 171//292 177//292
f 176//293 174//293 170//293
f 170//294 174//294 172//294
f 137//295 166//295 204//295
f 3//296 1//296 9//296 5//296
f 137//297 135//297 166//297
f 160//298 131//298 204//298
f 204//299 131//299 137//299
f 16//300 164//300 158//300
f 8//301 2//301 10//301 6//301
f 155//302 157//302 15//302
