# Blender v2.79 (sub 0) OBJ File: ''
# www.blender.org
mtllib sphere_decimated_2.mtl
o Sphere
v 0.497339 1.727472 0.466612
v 0.497339 1.578156 0.106132
v 0.497339 1.302256 -0.169767
v 0.497339 0.941777 -0.319083
v 0.497339 0.551596 -0.319083
v 0.497339 -0.084783 0.106133
v 0.571997 1.727472 0.481463
v 0.709947 1.578156 0.148423
v 0.815529 1.302256 -0.106475
v 0.872669 0.941777 -0.244425
v 0.872669 0.551596 -0.244425
v 0.815529 0.191116 -0.106475
v 0.709947 -0.084783 0.148423
v 0.571997 -0.234099 0.481463
v 0.635289 1.727472 0.523753
v 0.890187 1.578156 0.268855
v 1.085277 1.302256 0.073765
v 1.190859 0.941777 -0.031817
v 1.190859 0.551596 -0.031817
v 1.085277 0.191116 0.073765
v 0.890187 -0.084783 0.268855
v 0.635289 -0.234099 0.523753
v 0.677579 1.727472 0.587045
v 1.010619 1.578156 0.449095
v 1.265517 1.302256 0.343513
v 1.403466 0.941777 0.286373
v 1.403466 0.551596 0.286373
v 1.265517 0.191116 0.343513
v 1.010619 -0.084783 0.449095
v 0.677579 -0.234099 0.587045
v 0.692430 1.727472 0.661703
v 1.052909 1.578156 0.661703
v 1.328809 1.302256 0.661703
v 1.478124 0.941777 0.661703
v 1.478124 0.551596 0.661703
v 1.328809 0.191116 0.661703
v 1.052909 -0.084783 0.661703
v 0.692429 -0.234099 0.661703
v 0.677579 1.727472 0.736361
v 1.010619 1.578156 0.874311
v 1.265517 1.302256 0.979893
v 1.403466 0.941777 1.037033
v 1.403466 0.551596 1.037033
v 1.265517 0.191116 0.979893
v 1.010619 -0.084783 0.874311
v 0.677579 -0.234099 0.736361
v 0.635289 1.727472 0.799653
v 0.890187 1.578156 1.054551
v 1.085277 1.302256 1.249641
v 1.190859 0.941777 1.355223
v 1.190859 0.551596 1.355223
v 1.085277 0.191116 1.249641
v 0.890187 -0.084783 1.054551
v 0.635289 -0.234099 0.799653
v 0.497339 -0.253314 0.661703
v 0.571997 1.727472 0.841943
v 0.709947 1.578156 1.174983
v 0.815529 1.302256 1.429881
v 0.872669 0.941777 1.567830
v 0.872669 0.551596 1.567830
v 0.815529 0.191116 1.429881
v 0.709947 -0.084783 1.174983
v 0.571997 -0.234099 0.841943
v 0.497339 1.727472 0.856794
v 0.497339 1.578156 1.217273
v 0.497339 1.302256 1.493172
v 0.497339 0.941777 1.642488
v 0.497339 0.551596 1.642488
v 0.497339 0.191116 1.493172
v 0.497339 -0.084783 1.217273
v 0.497339 -0.234099 0.856793
v 0.422681 1.727472 0.841943
v 0.284731 1.578156 1.174983
v 0.179149 1.302256 1.429880
v 0.122009 0.941777 1.567830
v 0.122009 0.551596 1.567830
v 0.179149 0.191116 1.429880
v 0.284732 -0.084783 1.174983
v 0.422681 -0.234099 0.841943
v 0.497339 1.746686 0.661703
v 0.359389 1.727472 0.799653
v 0.104492 1.578156 1.054551
v -0.090599 1.302256 1.249640
v -0.196181 0.941777 1.355223
v -0.196181 0.551596 1.355223
v -0.090599 0.191116 1.249640
v 0.104492 -0.084783 1.054550
v 0.359389 -0.234099 0.799653
v 0.317099 1.727472 0.736361
v -0.015941 1.578156 0.874310
v -0.270838 1.302256 0.979892
v -0.408788 0.941777 1.037033
v -0.408788 0.551596 1.037033
v -0.270838 0.191116 0.979892
v -0.015941 -0.084783 0.874310
v 0.317099 -0.234099 0.736361
v 0.302249 1.727472 0.661703
v -0.058231 1.578156 0.661703
v -0.334130 1.302256 0.661703
v -0.483446 0.941777 0.661703
v -0.483446 0.551596 0.661703
v -0.334130 0.191116 0.661703
v -0.058231 -0.084783 0.661703
v 0.302249 -0.234099 0.661703
v 0.317099 1.727472 0.587045
v -0.015941 1.578156 0.449095
v -0.270838 1.302256 0.343513
v -0.408788 0.941777 0.286373
v -0.408788 0.551596 0.286373
v -0.270838 0.191116 0.343513
v -0.015941 -0.084783 0.449095
v 0.317099 -0.234099 0.587045
v 0.359389 1.727472 0.523753
v 0.104492 1.578156 0.268856
v -0.090598 1.302256 0.073765
v -0.196180 0.941777 -0.031817
v -0.196180 0.551596 -0.031817
v -0.090598 0.191116 0.073765
v 0.104492 -0.084783 0.268856
v 0.359389 -0.234099 0.523753
v 0.422681 1.727472 0.481463
v 0.284732 1.578156 0.148423
v 0.179150 1.302256 -0.106474
v 0.122009 0.941777 -0.244424
v 0.122009 0.551596 -0.244424
v 0.179150 0.191116 -0.106474
v 0.284732 -0.084783 0.148423
v 0.422681 -0.234099 0.481463
v 0.497339 0.191116 -0.169766
v 0.497339 -0.234099 0.466613
vn 0.1951 0.0000 -0.9808
vn 0.0759 0.9212 -0.3816
vn 0.5556 0.0000 -0.8315
vn 0.1393 0.7002 -0.7002
vn 0.5147 -0.3764 -0.7703
vn 0.1807 0.3764 -0.9087
vn 0.3966 -0.7002 -0.5936
vn 0.0555 0.9950 -0.0831
vn 0.1807 -0.3764 -0.9087
vn 0.3235 0.9212 -0.2161
vn 0.1393 -0.7002 -0.7002
vn 0.8315 0.0000 -0.5556
vn 0.3966 0.7002 -0.5936
vn 0.2161 -0.9212 -0.3235
vn 0.5936 -0.7002 -0.3966
vn 0.7703 -0.3764 -0.5147
vn 0.5936 0.7002 -0.3966
vn 0.9808 0.0000 -0.1951
vn 0.3235 -0.9212 -0.2161
vn 0.9087 0.3764 -0.1807
vn 0.0555 -0.9950 -0.0831
vn 0.0831 0.9950 -0.0555
vn 0.3816 0.9212 -0.0759
vn 0.9087 -0.3764 -0.1807
vn 0.7002 0.7002 -0.1393
vn 0.9808 0.0000 0.1951
vn 0.7002 -0.7002 -0.1393
vn 0.9087 0.3764 0.1807
vn 0.0831 -0.9950 -0.0555
vn 0.0980 0.9950 -0.0195
vn 0.3816 0.9212 0.0759
vn 0.3816 -0.9212 -0.0759
vn 0.7002 0.7002 0.1393
vn 0.8315 0.0000 0.5556
vn 0.7002 -0.7002 0.1393
vn 0.0980 0.9950 0.0195
vn 0.0980 -0.9950 -0.0195
vn 0.3235 0.9212 0.2161
vn 0.9087 -0.3764 0.1807
vn 0.7703 0.3764 0.5147
vn 0.3816 -0.9212 0.0759
vn 0.5936 0.7002 0.3966
vn 0.5556 0.0000 0.8315
vn 0.5936 -0.7002 0.3966
vn 0.0831 0.9950 0.0555
vn 0.2161 0.9212 0.3235
vn 0.7703 -0.3764 0.5147
vn 0.0980 -0.9950 0.0195
vn 0.3235 -0.9212 0.2161
vn 0.5147 0.3764 0.7703
vn 0.5147 -0.3764 0.7703
vn 0.3966 0.7002 0.5936
vn 0.1951 0.0000 0.9808
vn 0.3966 -0.7002 0.5936
vn 0.0759 0.9212 0.3816
vn 0.0831 -0.9950 0.0555
vn 0.2161 -0.9212 0.3235
vn 0.1807 0.3764 0.9087
vn 0.0555 0.9950 0.0831
vn 0.1807 -0.3764 0.9087
vn 0.1393 0.7002 0.7002
vn -0.1951 0.0000 0.9808
vn 0.1393 -0.7002 0.7002
vn 0.0555 -0.9950 0.0831
vn -0.0759 0.9212 0.3816
vn 0.0759 -0.9212 0.3816
vn -0.1807 0.3764 0.9087
vn 0.0195 0.9950 0.0980
vn -0.1393 0.7002 0.7002
vn -0.5556 0.0000 0.8315
vn -0.1807 -0.3764 0.9087
vn 0.0195 -0.9950 0.0980
vn -0.3966 0.7002 0.5936
vn -0.2161 0.9212 0.3235
vn -0.0759 -0.9212 0.3816
vn -0.5147 0.3764 0.7703
vn -0.1393 -0.7002 0.7002
vn -0.0195 0.9950 0.0980
vn -0.8315 0.0000 0.5556
vn -0.3966 -0.7002 0.5936
vn -0.5147 -0.3764 0.7703
vn -0.5936 0.7002 0.3966
vn -0.2161 -0.9212 0.3235
vn -0.7703 0.3764 0.5147
vn -0.3235 0.9212 0.2161
vn -0.0555 0.9950 0.0831
vn -0.0195 -0.9950 0.0980
vn -0.9808 0.0000 0.1951
vn -0.5936 -0.7002 0.3966
vn -0.7703 -0.3764 0.5147
vn -0.3816 0.9212 0.0759
vn -0.3235 -0.9212 0.2161
vn -0.9087 0.3764 0.1807
vn -0.0831 0.9950 0.0555
vn -0.0555 -0.9950 0.0831
vn -0.9808 0.0000 -0.1951
vn -0.7002 -0.7002 0.1393
vn -0.9087 -0.3764 0.1807
vn -0.7002 0.7002 0.1393
vn -0.3816 0.9212 -0.0759
vn -0.9087 0.3764 -0.1807
vn -0.0980 0.9950 0.0195
vn -0.3816 -0.9212 0.0759
vn -0.0831 -0.9950 0.0555
vn -0.7002 -0.7002 -0.1393
vn -0.9087 -0.3764 -0.1807
vn -0.7002 0.7002 -0.1393
vn -0.8315 0.0000 -0.5556
vn -0.3235 0.9212 -0.2161
vn -0.0980 0.9950 -0.0195
vn -0.3816 -0.9212 -0.0759
vn -0.7703 0.3764 -0.5147
vn -0.0980 -0.9950 0.0195
vn -0.5936 -0.7002 -0.3966
vn -0.7703 -0.3764 -0.5147
vn -0.5936 0.7002 -0.3966
vn -0.5556 0.0000 -0.8315
vn -0.3235 -0.9212 -0.2161
vn -0.0831 0.9950 -0.0555
vn -0.5147 0.3764 -0.7703
vn -0.0980 -0.9950 -0.0195
vn -0.2161 0.9212 -0.3235
vn -0.3966 -0.7002 -0.5936
vn -0.5147 -0.3764 -0.7703
vn -0.3966 0.7002 -0.5936
vn -0.0195 -0.9950 -0.0980
vn -0.2161 -0.9212 -0.3235
vn -0.0831 -0.9950 -0.0555
vn -0.0555 0.9950 -0.0831
vn -0.1807 -0.3764 -0.9087
vn -0.1393 -0.7002 -0.7002
vn -0.0555 -0.9950 -0.0831
vn -0.0195 0.9950 -0.0980
vn -0.0759 -0.9212 -0.3816
vn 0.0195 -0.9950 -0.0980
vn 0.0759 -0.9212 -0.3816
vn -0.1807 0.3764 -0.9087
vn 0.7703 0.3764 -0.5147
vn -0.1951 0.0000 -0.9808
vn -0.1393 0.7002 -0.7002
vn 0.5147 0.3764 -0.7703
vn 0.2161 0.9212 -0.3235
vn 0.0195 0.9950 -0.0980
vn -0.0759 0.9212 -0.3816
usemtl None
s off
f 11//1 5//1 4//1 10//1
f 8//2 2//2 1//2 7//2
f 19//3 11//3 10//3 18//3
f 9//4 3//4 2//4 8//4
f 20//5 12//5 11//5 19//5
f 10//6 4//6 3//6 9//6
f 21//7 13//7 12//7 20//7
f 80//8 15//8 7//8
f 12//9 129//9 5//9 11//9
f 24//10 16//10 15//10 23//10
f 13//11 6//11 129//11 12//11
f 27//12 19//12 18//12 26//12
f 17//13 9//13 8//13 16//13
f 22//14 14//14 13//14 21//14
f 29//15 21//15 20//15 28//15
f 28//16 20//16 19//16 27//16
f 25//17 17//17 16//17 24//17
f 35//18 27//18 26//18 34//18
f 30//19 22//19 21//19 29//19
f 34//20 26//20 25//20 33//20
f 55//21 14//21 22//21
f 80//22 23//22 15//22
f 32//23 24//23 23//23 31//23
f 36//24 28//24 27//24 35//24
f 33//25 25//25 24//25 32//25
f 43//26 35//26 34//26 42//26
f 37//27 29//27 28//27 36//27
f 42//28 34//28 33//28 41//28
f 55//29 22//29 30//29
f 80//30 31//30 23//30
f 40//31 32//31 31//31 39//31
f 38//32 30//32 29//32 37//32
f 41//33 33//33 32//33 40//33
f 51//34 43//34 42//34 50//34
f 45//35 37//35 36//35 44//35
f 80//36 39//36 31//36
f 55//37 30//37 38//37
f 48//38 40//38 39//38 47//38
f 44//39 36//39 35//39 43//39
f 50//40 42//40 41//40 49//40
f 46//41 38//41 37//41 45//41
f 49//42 41//42 40//42 48//42
f 60//43 51//43 50//43 59//43
f 53//44 45//44 44//44 52//44
f 80//45 47//45 39//45
f 57//46 48//46 47//46 56//46
f 52//47 44//47 43//47 51//47
f 55//48 38//48 46//48
f 54//49 46//49 45//49 53//49
f 59//50 50//50 49//50 58//50
f 61//51 52//51 51//51 60//51
f 58//52 49//52 48//52 57//52
f 68//53 60//53 59//53 67//53
f 62//54 53//54 52//54 61//54
f 65//55 57//55 56//55 64//55
f 55//56 46//56 54//56
f 63//57 54//57 53//57 62//57
f 67//58 59//58 58//58 66//58
f 80//59 56//59 47//59
f 69//60 61//60 60//60 68//60
f 66//61 58//61 57//61 65//61
f 76//62 68//62 67//62 75//62
f 70//63 62//63 61//63 69//63
f 55//64 54//64 63//64
f 73//65 65//65 64//65 72//65
f 71//66 63//66 62//66 70//66
f 75//67 67//67 66//67 74//67
f 80//68 64//68 56//68
f 74//69 66//69 65//69 73//69
f 85//70 76//70 75//70 84//70
f 77//71 69//71 68//71 76//71
f 55//72 63//72 71//72
f 83//73 74//73 73//73 82//73
f 82//74 73//74 72//74 81//74
f 79//75 71//75 70//75 78//75
f 84//76 75//76 74//76 83//76
f 78//77 70//77 69//77 77//77
f 80//78 72//78 64//78
f 93//79 85//79 84//79 92//79
f 87//80 78//80 77//80 86//80
f 86//81 77//81 76//81 85//81
f 91//82 83//82 82//82 90//82
f 88//83 79//83 78//83 87//83
f 92//84 84//84 83//84 91//84
f 90//85 82//85 81//85 89//85
f 80//86 81//86 72//86
f 55//87 71//87 79//87
f 101//88 93//88 92//88 100//88
f 95//89 87//89 86//89 94//89
f 94//90 86//90 85//90 93//90
f 98//91 90//91 89//91 97//91
f 96//92 88//92 87//92 95//92
f 100//93 92//93 91//93 99//93
f 80//94 89//94 81//94
f 55//95 79//95 88//95
f 109//96 101//96 100//96 108//96
f 103//97 95//97 94//97 102//97
f 102//98 94//98 93//98 101//98
f 99//99 91//99 90//99 98//99
f 106//100 98//100 97//100 105//100
f 108//101 100//101 99//101 107//101
f 80//102 97//102 89//102
f 104//103 96//103 95//103 103//103
f 55//104 88//104 96//104
f 111//105 103//105 102//105 110//105
f 110//106 102//106 101//106 109//106
f 107//107 99//107 98//107 106//107
f 117//108 109//108 108//108 116//108
f 114//109 106//109 105//109 113//109
f 80//110 105//110 97//110
f 112//111 104//111 103//111 111//111
f 116//112 108//112 107//112 115//112
f 55//113 96//113 104//113
f 119//114 111//114 110//114 118//114
f 118//115 110//115 109//115 117//115
f 115//116 107//116 106//116 114//116
f 125//117 117//117 116//117 124//117
f 120//118 112//118 111//118 119//118
f 80//119 113//119 105//119
f 124//120 116//120 115//120 123//120
f 55//121 104//121 112//121
f 122//122 114//122 113//122 121//122
f 127//123 119//123 118//123 126//123
f 126//124 118//124 117//124 125//124
f 123//125 115//125 114//125 122//125
f 55//126 128//126 130//126
f 128//127 120//127 119//127 127//127
f 55//128 112//128 120//128
f 80//129 121//129 113//129
f 129//130 126//130 125//130 5//130
f 6//131 127//131 126//131 129//131
f 55//132 120//132 128//132
f 80//133 1//133 121//133
f 130//134 128//134 127//134 6//134
f 55//135 130//135 14//135
f 14//136 130//136 6//136 13//136
f 123//137 3//137 4//137 124//137
f 26//138 18//138 17//138 25//138
f 124//139 4//139 5//139 125//139
f 122//140 2//140 3//140 123//140
f 18//141 10//141 9//141 17//141
f 16//142 8//142 7//142 15//142
f 80//143 7//143 1//143
f 122//144 121//144 1//144 2//144
